Coordinates
version=1
nRows=6
nColumns=63
inDegrees=yes

Units are S.I. units (second, meters, Newtons, ...)
If the header above contains a line with 'inDegrees', this indicates whether rotational values are in degrees (yes) or radians (no).

endheader
time	pelvis_tilt	pelvis_list	pelvis_rotation	pelvis_tx	pelvis_ty	pelvis_tz	hip_flexion_r	hip_adduction_r	hip_rotation_r	knee_angle_r	knee_angle_r_beta	ankle_angle_r	subtalar_angle_r	mtp_angle_r	hip_flexion_l	hip_adduction_l	hip_rotation_l	knee_angle_l	knee_angle_l_beta	ankle_angle_l	subtalar_angle_l	mtp_angle_l	L5_S1_Flex_Ext	L5_S1_Lat_Bending	L5_S1_axial_rotation	L4_L5_Flex_Ext	L4_L5_Lat_Bending	L4_L5_axial_rotation	L3_L4_Flex_Ext	L3_L4_Lat_Bending	L3_L4_axial_rotation	L2_L3_Flex_Ext	L2_L3_Lat_Bending	L2_L3_axial_rotation	L1_L2_Flex_Ext	L1_L2_Lat_Bending	L1_L2_axial_rotation	L1_T12_Flex_Ext	L1_T12_Lat_Bending	L1_T12_axial_rotation	Abs_r3	Abs_r2	Abs_r1	Abs_t1	Abs_t2	neck_flexion	neck_bending	neck_rotation	arm_flex_r	arm_add_r	arm_rot_r	elbow_flex_r	pro_sup_r	wrist_flex_r	wrist_dev_r	arm_flex_l	arm_add_l	arm_rot_l	elbow_flex_l	pro_sup_l	wrist_flex_l	wrist_dev_l
      5.72881356	     -0.45838470	     -1.04441336	     82.45941043	      0.23420826	      0.64464337	      0.67088995	      2.26547417	      0.04656436	     -5.79463682	      8.49971282	      0.14834797	     16.37970482	     12.37148098	      0.00000000	     -0.15397716	      0.88515076	     -8.95393230	      4.02228505	      0.07020212	     13.71971386	     -7.82979313	      0.00000000	     -0.32561986	      0.44483225	      1.37610947	     -0.60470865	      0.59162689	      1.46211631	     -0.53496087	      1.08156514	      1.46211631	     -0.37215094	      1.08156514	      1.20409579	     -0.30237060	      0.90710193	      1.11808895	     -0.18605919	      0.68904516	      1.03208210	     -2.32587012	      5.03203140	      7.65350805	      0.00000000	      0.00000000	     17.00069114	     -3.78939664	      2.56212277	      1.16425566	    -14.03336731	      8.20645842	     35.72194000	     87.15562041	     -9.38976088	     18.17055337	     12.43583960	     -7.43091004	    121.77931822	      9.28160594	     10.80210575	     -1.30760785	     -4.50700550
      5.74576271	     -0.37674854	     -1.07341437	     82.76306395	      0.23359657	      0.64442212	      0.67071386	      2.19110257	      0.20300612	     -5.13393786	      8.29615822	      0.14479528	     16.39133810	     11.07650201	      0.00000000	     -0.11579187	      0.82978922	     -8.23250367	      4.07468879	      0.07111674	     13.54980461	     -8.44485346	      0.00000000	     -0.31259102	      0.46345984	      1.31913814	     -0.58051279	      0.61640158	      1.40158427	     -0.51355579	      1.12685625	      1.40158427	     -0.35726028	      1.12685625	      1.15424587	     -0.29027202	      0.94508730	      1.07179974	     -0.17861451	      0.71789929	      0.98935360	     -2.23280641	      5.24275036	      7.33665057	      0.00000000	      0.00000000	     16.64845915	     -3.51648718	      1.89523807	      1.45549770	    -14.28658214	      9.20710210	     35.73251790	     87.39357927	     -9.63548419	     18.52332984	     12.20355871	     -7.69891768	    116.91669376	     10.00707806	     15.16630009	     -2.04802244	     -4.43918506
      5.76271186	     -0.37091009	     -1.05945517	     83.28788016	      0.23291306	      0.64424297	      0.67082315	      2.12544267	      0.24200996	     -5.05552678	      8.24458952	      0.14389523	     16.42569123	     10.26557759	      0.00000000	     -0.00524680	      0.83177810	     -7.35492939	      4.29959580	      0.07504210	     13.25746299	     -9.09425458	      0.00000000	     -0.31059007	      0.46938038	      1.22790304	     -0.57679681	      0.62427590	      1.30464698	     -0.51026842	      1.14125145	      1.30464698	     -0.35497339	      1.14125145	      1.07441516	     -0.28841394	      0.95716047	      0.99767122	     -0.17747116	      0.72707021	      0.92092728	     -2.21851379	      5.30972472	      6.82922833	      0.00000000	      0.00000000	     16.26471351	     -3.20712901	      1.35288493	      1.86781350	    -14.44558181	     10.23948962	     35.49837944	     87.46514504	     -9.81902310	     18.51270420	     11.98255122	     -7.95278462	    113.13469553	     10.44195160	     19.00884248	     -2.53523821	     -4.50458567
      5.77966102	     -0.44773518	     -1.11778546	     84.11363818	      0.23183234	      0.64393307	      0.67118899	      2.20233186	      0.11040233	     -6.28595710	      8.38100268	      0.14627609	     16.62572013	     10.78281492	      0.00000000	      0.27211495	      0.91485671	     -5.91761671	      4.61158560	      0.08048735	     12.81126952	    -10.09322501	      0.00000000	     -0.30037840	      0.46943772	      1.09859042	     -0.55783272	      0.62435217	      1.16725232	     -0.49349167	      1.14139088	      1.16725232	     -0.34330247	      1.14139088	      0.96126662	     -0.27893138	      0.95727740	      0.89260472	     -0.17163622	      0.72715903	      0.82394281	     -2.14557286	      5.31037340	      6.11003033	      0.00000000	      0.00000000	     15.83752591	     -2.90434288	      1.09908656	      2.21444399	    -14.45474072	     10.78886964	     35.12377105	     87.42519964	     -9.90708424	     18.26278623	     11.82704130	     -8.20941022	    110.34765758	     10.88214623	     21.85257271	     -3.30234336	     -4.64619178
      5.79661017	     -0.58327335	     -1.17008482	     84.78269483	      0.23103016	      0.64364992	      0.67172897	      2.35481850	     -0.05637716	     -7.00378148	      8.64782082	      0.15093295	     16.73686399	     10.77593031	      0.00000000	      0.55006121	      1.05702641	     -4.79419454	      4.90760553	      0.08565387	     12.36581410	    -10.90433237	      0.00000000	     -0.29866982	      0.46482619	      1.03061013	     -0.55465972	      0.61821884	      1.09502326	     -0.49068465	      1.13017841	      1.09502326	     -0.34134974	      1.13017841	      0.90178386	     -0.27734479	      0.94787357	      0.83737073	     -0.17065993	      0.72001577	      0.77295760	     -2.13336865	      5.25820687	      5.73194437	      0.00000000	      0.00000000	     15.43067784	     -2.81210488	      0.81708674	      2.45985800	    -14.42533785	     11.06984858	     34.65865855	     87.25716787	    -10.00898338	     17.75297285	     11.75866507	     -8.38289863	    108.25824599	     11.16077418	     23.91845054	     -3.86828538	     -4.72321654
      5.81355932	     -0.75893674	     -1.19057940	     85.45394672	      0.23025796	      0.64339219	      0.67229942	      2.51991579	     -0.31915985	     -8.20273645	      9.02098821	      0.15744595	     17.02295687	     11.56784293	      0.00000000	      0.82629191	      1.22053775	     -4.28380125	      5.24135635	      0.09147893	     12.26542255	    -10.79529750	      0.00000000	     -0.30507392	      0.45682587	      0.97936500	     -0.56655278	      0.60757840	      1.04057532	     -0.50120595	      1.11072641	      1.04057532	     -0.34866899	      1.11072641	      0.85694438	     -0.28329164	      0.93155931	      0.79573407	     -0.17431924	      0.70762327	      0.73452375	     -2.17911252	      5.16770556	      5.44693434	      0.00000000	      0.00000000	     15.06665155	     -2.78634613	      0.54524556	      2.62061548	    -14.32624594	     10.95378799	     34.18962126	     86.99751143	    -10.00605675	     17.26964414	     11.60828951	     -8.69779211	    104.06802891	     11.73100315	     27.68662083	     -4.75382514	     -4.51378474
